<?xml version="1.0" standalone="no"?><svg xmlns="http://www.w3.org/2000/svg" viewBox="0 0 1440 320"><path fill="#383E56" fill-opacity="1" d="M0,192L21.8,192C43.6,192,87,192,131,186.7C174.5,181,218,171,262,144C305.5,117,349,75,393,85.3C436.4,96,480,160,524,192C567.3,224,611,224,655,218.7C698.2,213,742,203,785,170.7C829.1,139,873,85,916,85.3C960,85,1004,139,1047,160C1090.9,181,1135,171,1178,160C1221.8,149,1265,139,1309,138.7C1352.7,139,1396,149,1418,154.7L1440,160L1440,320L1418.2,320C1396.4,320,1353,320,1309,320C1265.5,320,1222,320,1178,320C1134.5,320,1091,320,1047,320C1003.6,320,960,320,916,320C872.7,320,829,320,785,320C741.8,320,698,320,655,320C610.9,320,567,320,524,320C480,320,436,320,393,320C349.1,320,305,320,262,320C218.2,320,175,320,131,320C87.3,320,44,320,22,320L0,320Z"></path></svg>